<?xml version="1.0" encoding="utf-8"?>
<!-- Generator: Adobe Illustrator 24.0.1, SVG Export Plug-In . SVG Version: 6.00 Build 0)  -->
<svg version="1.1" id="Layer_1" xmlns="http://www.w3.org/2000/svg" xmlns:xlink="http://www.w3.org/1999/xlink" x="0px" y="0px"
	 width="300.5px" height="100px" viewBox="0 0 300.5 100" style="enable-background:new 0 0 300.5 100;" xml:space="preserve">
<style type="text/css">
	.st0{fill:#797D82;}
	.st1{fill:#8D0E57;}
	.st2{fill:#005A9C;}
	.st3{fill:#F5B335;}
	.st4{fill:#FFFFFF;}
</style>
<g>
	<g>
		<g>
			<path class="st0" d="M119.6,44.2l2.8,11.3c0,0.1,0.1,0.2,0.2,0.2c0.1,0,0.2-0.1,0.2-0.2c0.1-0.4,2.8-10.3,3.7-16.2h1.9
				c-0.6,5-2.4,11.7-3.9,16.7c-0.3,0.8-0.9,1.4-1.9,1.4c-0.9,0-1.6-0.5-1.9-1.4c-0.6-2.3-2.2-8.7-2.3-9.1c-0.1,0.3-1.7,6.7-2.3,9.1
				c-0.2,0.9-1,1.4-1.9,1.4c-1,0-1.7-0.6-1.9-1.4c-1.5-5-3.3-11.8-3.9-16.7h1.9c0.9,5.9,3.6,15.8,3.7,16.2c0,0.1,0.1,0.2,0.2,0.2
				c0.1,0,0.2-0.1,0.2-0.2l2.8-11.3c0.2-0.8,0.8-1.1,1.2-1.1C118.8,43.1,119.4,43.3,119.6,44.2z"/>
			<path class="st0" d="M130.9,51.1c0-3.3,1.4-6.5,5.1-6.5c3.7,0,5,3.2,5,5.6c0,1.4-0.6,1.9-1.9,1.9h-6.4c0.1,1.9,1.1,3.8,3.8,3.8
				c1.2,0,2.2-0.3,3.2-1l0.9,1.4c-1.5,1-2.9,1.3-4.1,1.3C132.2,57.6,130.9,54.3,130.9,51.1z M132.7,50.4h6.4c0.1,0,0.2,0,0.2-0.2
				c0-1.6-0.7-3.9-3.2-3.9C133.7,46.3,132.9,48.3,132.7,50.4z"/>
			<path class="st0" d="M144.1,39.3h1.7v18.1h-1.7V39.3z"/>
			<path class="st0" d="M149.6,39.3h1.7v18.1h-1.7V39.3z"/>
			<path class="st0" d="M155.8,40.5c0.6,0,1.1,0.5,1.1,1.1c0,0.6-0.5,1.1-1.1,1.1c-0.6,0-1.2-0.5-1.2-1.1
				C154.6,41,155.1,40.5,155.8,40.5z M154.9,57.4h1.7V44.8h-1.7V57.4z"/>
			<path class="st0" d="M167.4,57.4v-8.1c0-1.5-1.1-3.1-3.1-3.1c-1.6,0-2.9,1.2-2.9,1.2v10h-1.7V47c0,0,1.5-2.4,4.6-2.4
				c3.2,0,4.8,2.5,4.8,4.8v8.1H167.4z"/>
			<path class="st0" d="M180.8,55.6c-0.4,0.8-1.7,2-3.5,2c-3.7,0-5.3-3.2-5.3-6.5c0-3.3,1.5-6.5,5.3-6.5c1.8,0,3.1,1.2,3.5,2v-1.8
				h1.7v12.9c-0.1,3.1-1.7,5.2-4.9,5.2h-0.2c-1.4,0-2.8-0.4-4.1-1l0.8-1.5c1.6,0.8,2.7,0.9,3.3,0.9h0.2c2.1,0,3.1-1.6,3.1-3.6V55.6z
				 M180.8,51.1c0-2.3-1-4.8-3.5-4.8c-2.5,0-3.5,2.5-3.5,4.8c0,2.3,1,4.8,3.5,4.8C179.8,55.9,180.8,53.4,180.8,51.1z"/>
			<path class="st0" d="M190.6,57.4c-2.3,0-3.3-1.5-3.3-3.5v-7.5h-2.2v-1.7h2.2v-3.3h1.7v3.3h3.1v1.7H189V54c0,1.2,0.5,1.8,1.6,1.8
				h1.5v1.7H190.6z"/>
			<path class="st0" d="M194.5,51.1c0-3.3,1.5-6.5,5.3-6.5c3.7,0,5.3,3.2,5.3,6.5c0,3.3-1.5,6.5-5.3,6.5
				C196,57.6,194.5,54.4,194.5,51.1z M203.3,51.1c0-2.3-1-4.8-3.5-4.8c-2.5,0-3.5,2.5-3.5,4.8c0,2.3,1,4.8,3.5,4.8
				C202.3,55.9,203.3,53.4,203.3,51.1z"/>
			<path class="st0" d="M215.3,57.4v-8.1c0-1.5-1.1-3.1-3.1-3.1c-1.6,0-2.9,1.2-2.9,1.2v10h-1.7V47c0,0,1.5-2.4,4.6-2.4
				c3.2,0,4.8,2.5,4.8,4.8v8.1H215.3z"/>
			<path class="st0" d="M226.9,55.9l0.6-1.7c1.9,1.1,3.7,1.7,5.5,1.7c2.4,0,4.5-1.1,4.5-3.3c0-2.2-2.8-3.2-4.8-3.6
				c-2.9-0.6-5.6-2-5.6-5.3c0-2.8,2.5-4.7,6-4.7c1.9,0,4.3,0.8,5.1,1.1l-0.6,1.6c-0.6-0.3-2.7-1-4.5-1c-3.4,0-4.2,1.9-4.2,2.9
				c0,2.2,2.2,3.1,4.1,3.5c2.8,0.6,6.2,2.1,6.3,5.4c0,1.2-0.4,5-6.3,5C231,57.7,228.9,57.1,226.9,55.9z"/>
			<path class="st0" d="M247.1,57.6c-3.7,0-5.3-3.2-5.3-6.5c0-3.3,1.5-6.5,5.3-6.5h0.3c1.3,0,2.6,0.5,3.8,1.7l-1.2,1.2
				c-1.2-1.1-2-1.3-2.6-1.3h-0.3c-2.5,0-3.5,2.5-3.5,4.8c0,2.3,1,4.8,3.5,4.8h0.3c0.6,0,1.4-0.1,2.6-1.3l1.2,1.2
				c-1.2,1.2-2.5,1.7-3.8,1.7H247.1z"/>
			<path class="st0" d="M253.8,57.4V39.3h1.7v7.3c0.4-0.8,1.5-2,3.3-2c3.6,0,5,3.2,5,6.5v6.3h-1.7v-6.3c0-2.3-0.8-4.8-3.3-4.8
				c-2.5,0-3.3,2.5-3.3,4.8v6.3H253.8z"/>
			<path class="st0" d="M266.2,51.1c0-3.3,1.5-6.5,5.3-6.5c3.7,0,5.3,3.2,5.3,6.5c0,3.3-1.5,6.5-5.3,6.5
				C267.8,57.6,266.2,54.4,266.2,51.1z M275,51.1c0-2.3-1-4.8-3.5-4.8c-2.5,0-3.5,2.5-3.5,4.8c0,2.3,1,4.8,3.5,4.8
				C274.1,55.9,275,53.4,275,51.1z"/>
			<path class="st0" d="M279.1,51.1c0-3.3,1.5-6.5,5.3-6.5c3.7,0,5.3,3.2,5.3,6.5c0,3.3-1.5,6.5-5.3,6.5
				C280.6,57.6,279.1,54.4,279.1,51.1z M287.9,51.1c0-2.3-1-4.8-3.5-4.8c-2.5,0-3.5,2.5-3.5,4.8c0,2.3,1,4.8,3.5,4.8
				C286.9,55.9,287.9,53.4,287.9,51.1z"/>
			<path class="st0" d="M292.7,39.3h1.7v18.1h-1.7V39.3z"/>
			<path class="st0" d="M108.6,74.2c0.4-2.8,2.1-5.4,5.1-5.4c3,0,4,2.6,3.6,5.4c-0.2,1.6-0.9,3.2-2,4.2c0.1,0.2,0.4,0.8,1.5,1.2
				c0,0-0.4,1-0.4,1s-1.4-0.4-2.1-1.5c-0.6,0.4-1.4,0.6-2.2,0.6C109.1,79.6,108.2,77,108.6,74.2z M109.7,74.2
				c-0.3,2.3,0.4,4.4,2.6,4.4c2.3,0,3.6-2.2,3.9-4.4c0.3-2.3-0.4-4.4-2.6-4.4C111.3,69.8,110,71.9,109.7,74.2z"/>
			<path class="st0" d="M120.7,76c-0.5,1.1-0.9,2.3-1.4,3.5h-1.1c0.4-1.2,2.4-6.3,4.3-9.8c0.3-0.5,0.8-0.8,1.4-0.8h0.1
				c0.6,0,1,0.3,1.1,0.8c0.9,3.5,1.4,8.7,1.5,9.8h-1.1c-0.1-1.1-0.3-2.3-0.4-3.5H120.7z M125,75c-0.2-1.8-0.5-3.4-0.9-4.9
				c0-0.1-0.2-0.2-0.3-0.2h-0.1c-0.2,0-0.3,0.1-0.4,0.2c-0.7,1.4-1.5,3.1-2.2,4.9H125z"/>
			<path class="st0" d="M131.4,79.5l1.3-9.6h-3.3l0.2-1h7.6l-0.2,1h-3.3l-1.3,9.6H131.4z"/>
			<path class="st0" d="M139.5,76c-0.5,1.1-0.9,2.3-1.4,3.5h-1.1c0.4-1.2,2.4-6.3,4.3-9.8c0.3-0.5,0.8-0.8,1.4-0.8h0.1
				c0.6,0,1,0.3,1.1,0.8c0.9,3.5,1.4,8.7,1.5,9.8h-1.1c-0.1-1.1-0.3-2.3-0.4-3.5H139.5z M143.9,75c-0.2-1.8-0.5-3.4-0.9-4.9
				c0-0.1-0.2-0.2-0.3-0.2h-0.1c-0.2,0-0.3,0.1-0.4,0.2c-0.7,1.4-1.5,3.1-2.2,4.9H143.9z"/>
			<path class="st0" d="M153,79.5l0.4-2.8c0.2-1.2-0.6-1.9-1.6-1.9h-3l-0.6,4.7h-1l1.5-10.6h4c1.9,0,2.9,1.3,2.7,3
				c-0.2,1.2-0.9,2.1-1.7,2.5c0.6,0.5,1,1.2,0.8,2.4l-0.4,2.8H153z M148.9,73.8h3c1.1,0,2.1-0.7,2.3-1.9c0.2-1.3-0.6-2-1.8-2h-3
				L148.9,73.8z"/>
		</g>
		<path class="st1" d="M115.8,12.5v7.1c0,0.5,0.4,0.9,0.9,0.9h9.8c0.5,0,0.9-0.4,0.9-0.9v-0.9h-9.8v-4.3c0-2,1.6-3.7,3.7-3.7h11.3
			c2,0,3.7,1.6,3.7,3.7v11.3c0,2-1.6,3.7-3.7,3.7h-18.3c-4,0-7.3-3.3-7.3-7.3V7.3c0-4.1,3.3-7.3,7.3-7.3h22v5.2c0,2-1.6,3.7-3.7,3.7
			h-13.2C117.5,8.8,115.8,10.5,115.8,12.5z M178.4,0c-4,0-7.3,3.3-7.3,7.3v22h5.2c2,0,3.7-1.6,3.7-3.7V9.8c0-0.5,0.4-0.9,0.9-0.9
			h0.9v20.5h4.3l0,0c2,0,3.7-1.6,3.7-3.7V9.8c0-0.5,0.4-0.9,0.9-0.9h0.9v20.5h5.2c2,0,3.7-1.6,3.7-3.7V0H178.4z M232.4,22v-7.7
			c0-2-1.6-3.7-3.7-3.7h-16.8V9.8c0-0.5,0.4-0.9,0.9-0.9h15.9c2,0,3.7-1.6,3.7-3.7V0h-22c-4,0-7.3,3.3-7.3,7.3V15
			c0,2,1.6,3.7,3.7,3.7h16.9v0.9c0,0.5-0.4,0.9-0.9,0.9h-15.9c-2,0-3.7,1.6-3.7,3.7v5.2h22C229.1,29.3,232.4,26.1,232.4,22z
			 M148.8,8.8h15.9c2,0,3.7-1.6,3.7-3.7V0h-22c-4,0-7.3,3.3-7.3,7.3V22c0,4,3.3,7.3,7.3,7.3h18.3c2,0,3.7-1.6,3.7-3.7v-5.2h-19.6
			c-0.5,0-0.9-0.4-0.9-0.9v-0.9h16.9c2,0,3.7-1.6,3.7-3.7v-4.3h-20.5V9.8C147.9,9.2,148.3,8.8,148.8,8.8z"/>
		<g>
			<g>
				<path class="st0" d="M110.7,94.1c-0.3,0.7-0.6,1.4-0.9,2.2h-0.5c0.3-0.7,1.5-3.9,2.6-6.1c0.2-0.3,0.5-0.5,0.8-0.5h0.1
					c0.3,0,0.6,0.1,0.7,0.5c0.5,2.2,0.9,5.3,0.9,6.1h-0.5c-0.1-0.7-0.2-1.5-0.3-2.2H110.7z M113.6,93.6c-0.2-1.1-0.3-2.3-0.6-3.3
					c0-0.1-0.1-0.1-0.3-0.1h-0.1c-0.2,0-0.3,0.1-0.3,0.1c-0.5,1-1,2.1-1.5,3.3H113.6z"/>
				<path class="st0" d="M118.8,89.7h2.4c1.1,0,1.7,0.6,1.5,1.7c-0.1,0.7-0.5,1.2-1,1.4c0.6,0.3,0.8,0.9,0.7,1.6
					c-0.2,1.1-1.1,1.8-2.1,1.8h-2.4L118.8,89.7z M120.4,95.8c0.1,0,1.3,0,1.5-1.3c0.2-1.2-0.8-1.3-1.2-1.3h-2l-0.4,2.6H120.4z
					 M120.8,92.7c0.1,0,1.3,0,1.4-1.2c0.2-1.1-0.8-1.2-1.1-1.2h-2l-0.3,2.5H120.8z"/>
				<path class="st0" d="M125.9,92.3c-0.2-0.1-0.4-0.2-0.6-0.2c-0.8,0-1.2,0.5-1.2,0.5l-0.5,3.7h-0.5l0.5-3.8c0,0,0.6-0.8,1.7-0.8
					c0.3,0,0.6,0.1,0.8,0.2L125.9,92.3z"/>
				<path class="st0" d="M129.8,93.9l-0.3,2.4H129l0.1-0.8c-0.2,0.4-0.8,0.9-1.4,0.9c-1.2,0-1.5-0.7-1.4-1.5
					c0.1-0.7,0.7-1.6,1.9-1.6c0.7,0,1.2,0.3,1.2,0.3c0.1-0.9,0-1.5-0.9-1.5c-0.4,0-0.8,0.1-1.3,0.4l-0.2-0.4
					c0.6-0.4,1.1-0.5,1.6-0.5C130.1,91.7,129.9,93,129.8,93.9z M129.3,94c-0.1-0.1-0.5-0.2-1.2-0.2c-0.9,0-1.3,0.7-1.4,1.1
					c-0.1,0.5,0.1,1,1,1C128.4,95.9,129.1,95.2,129.3,94z"/>
				<path class="st0" d="M133.3,96.3l0.4-2.9c0.1-0.6-0.3-1.2-1.1-1.2c-0.8,0-1.2,0.5-1.2,0.5l-0.5,3.7h-0.5l0.5-3.8
					c0,0,0.6-0.8,1.7-0.8c1.1,0,1.6,0.9,1.5,1.7l-0.4,2.9H133.3z"/>
				<path class="st0" d="M136.5,96.3c-1.3,0-1.7-1.1-1.5-2.3c0.2-1.2,0.8-2.3,2.2-2.3h0.1c0.5,0,0.9,0.2,1.2,0.6l-0.4,0.3
					c-0.3-0.4-0.7-0.4-0.9-0.4h-0.1c-1,0-1.5,1-1.6,1.9c-0.1,0.9,0.1,1.9,1.1,1.9h0.1c0.2,0,0.6-0.1,1-0.4l0.3,0.3
					c-0.4,0.4-0.9,0.6-1.4,0.6H136.5z"/>
				<path class="st0" d="M138.9,96.3l0.9-6.5h0.5l-0.4,2.8c0.3-0.4,0.8-0.9,1.4-0.9c1.3,0,1.6,1.1,1.5,2.3l-0.3,2.3H142l0.3-2.3
					c0.1-0.9-0.1-1.9-1.1-1.9c-1,0-1.5,1-1.6,1.9l-0.3,2.3H138.9z"/>
				<path class="st0" d="M146.2,94c0.2-1.2,0.8-2.3,2.2-2.3c1.3,0,1.7,1.1,1.5,2.3c-0.2,1.2-0.8,2.3-2.2,2.3
					C146.4,96.3,146,95.2,146.2,94z M149.4,94c0.1-0.9-0.1-1.9-1.1-1.9c-1,0-1.5,1-1.6,1.9c-0.1,0.9,0.1,1.9,1.1,1.9
					C148.8,95.9,149.2,94.9,149.4,94z"/>
				<path class="st0" d="M152.9,90.2c-0.4,0-0.7,0.3-0.8,0.7l-0.1,0.8h1.2l-0.1,0.5H152l-0.6,4.1H151l0.6-4.1h-0.8l0.1-0.5h0.8
					l0.1-0.8c0.1-0.7,0.5-1.2,1.3-1.2h0.5l-0.1,0.5H152.9z"/>
				<path class="st0" d="M157,89.7h2.3c1.1,0,1.8,0.8,1.6,1.9c-0.1,1-1,1.9-2.1,1.9h-1.9l-0.4,2.8h-0.5L157,89.7z M158.9,93
					c0.8,0,1.5-0.6,1.6-1.4c0.1-0.8-0.4-1.4-1.2-1.4h-1.9L157,93H158.9z"/>
				<path class="st0" d="M163.7,92.3c-0.2-0.1-0.4-0.2-0.6-0.2c-0.8,0-1.2,0.5-1.2,0.5l-0.5,3.7h-0.5l0.5-3.8c0,0,0.6-0.8,1.7-0.8
					c0.3,0,0.6,0.1,0.8,0.2L163.7,92.3z"/>
				<path class="st0" d="M164.3,94c0.2-1.2,0.8-2.3,2.2-2.3c1.3,0,1.6,1.1,1.5,2c-0.1,0.4-0.3,0.6-0.7,0.6h-2.5
					c-0.1,0.8,0.2,1.6,1.3,1.6c0.5,0,0.9-0.1,1.2-0.3l0.2,0.4c-0.5,0.3-1.1,0.4-1.5,0.4C164.4,96.3,164.1,95.2,164.3,94z
					 M164.8,93.8h2.5c0.1,0,0.2,0,0.2-0.2c0.1-0.6-0.1-1.6-1.1-1.6C165.3,92.1,164.9,93.2,164.8,93.8z"/>
				<path class="st0" d="M173.5,96.3l0.4-2.9c0.1-0.6-0.1-1.2-0.9-1.2c-0.7,0-1.1,0.4-1.2,0.6c0,0.2,0,0.4,0,0.6l-0.4,2.9H171l0.4-3
					c0.1-0.6-0.1-1.2-0.9-1.2c-0.8,0-1.1,0.5-1.1,0.5l-0.5,3.7h-0.5l0.5-3.8c0,0,0.5-0.8,1.6-0.8c0.6,0,1,0.2,1.1,0.6
					c0.2-0.2,0.7-0.6,1.4-0.6c1.1,0,1.4,0.9,1.3,1.7l-0.4,2.9H173.5z"/>
				<path class="st0" d="M175.7,91.7h0.5l-0.6,4.6h-0.5L175.7,91.7z M175.8,90.6c0,0.2,0.1,0.3,0.3,0.3c0.2,0,0.4-0.2,0.4-0.3
					c0-0.2-0.1-0.3-0.3-0.3C176,90.3,175.8,90.4,175.8,90.6z"/>
				<path class="st0" d="M176.9,94c0.2-1.2,0.8-2.3,2.2-2.3c1.3,0,1.6,1.1,1.5,2c-0.1,0.4-0.3,0.6-0.7,0.6h-2.5
					c-0.1,0.8,0.2,1.6,1.3,1.6c0.5,0,0.9-0.1,1.2-0.3l0.2,0.4c-0.5,0.3-1.1,0.4-1.5,0.4C177.1,96.3,176.8,95.2,176.9,94z
					 M177.4,93.8h2.5c0.1,0,0.2,0,0.2-0.2c0.1-0.6-0.1-1.6-1.1-1.6C178,92.1,177.5,93.2,177.4,93.8z"/>
				<path class="st0" d="M183.9,92.3c-0.2-0.1-0.4-0.2-0.6-0.2c-0.8,0-1.2,0.5-1.2,0.5l-0.5,3.7h-0.5l0.5-3.8c0,0,0.6-0.8,1.7-0.8
					c0.3,0,0.6,0.1,0.8,0.2L183.9,92.3z"/>
				<path class="st0" d="M187.2,95.7l0.2-0.4c0.6,0.4,1.2,0.6,1.9,0.6c0.9,0,1.8-0.4,1.9-1.3c0.1-0.9-0.9-1.3-1.6-1.4
					c-1-0.2-1.9-0.7-1.7-1.9c0.1-1,1.1-1.6,2.4-1.6c0.7,0,1.5,0.3,1.7,0.4l-0.2,0.5c-0.2-0.1-0.9-0.4-1.6-0.4
					c-1.3,0-1.8,0.8-1.8,1.2c-0.1,0.9,0.7,1.2,1.4,1.4c1,0.2,2.1,0.8,2,1.9c-0.1,0.4-0.4,1.8-2.5,1.8
					C188.5,96.3,187.8,96.1,187.2,95.7z"/>
				<path class="st0" d="M194.1,96.3c-1.3,0-1.7-1.1-1.5-2.3c0.2-1.2,0.8-2.3,2.2-2.3h0.1c0.5,0,0.9,0.2,1.2,0.6l-0.4,0.3
					c-0.3-0.4-0.7-0.4-0.9-0.4h-0.1c-1,0-1.5,1-1.6,1.9c-0.1,0.9,0.1,1.9,1.1,1.9h0.1c0.2,0,0.6-0.1,1-0.4l0.3,0.3
					c-0.4,0.4-0.9,0.6-1.4,0.6H194.1z"/>
				<path class="st0" d="M196.5,96.3l0.9-6.5h0.5l-0.4,2.8c0.3-0.4,0.8-0.9,1.4-0.9c1.3,0,1.6,1.1,1.5,2.3l-0.3,2.3h-0.5l0.3-2.3
					c0.1-0.9-0.1-1.9-1.1-1.9c-1,0-1.5,1-1.6,1.9l-0.3,2.3H196.5z"/>
				<path class="st0" d="M201.2,94c0.2-1.2,0.8-2.3,2.2-2.3c1.3,0,1.7,1.1,1.5,2.3c-0.2,1.2-0.8,2.3-2.2,2.3
					C201.4,96.3,201.1,95.2,201.2,94z M204.4,94c0.1-0.9-0.1-1.9-1.1-1.9c-1,0-1.5,1-1.6,1.9c-0.1,0.9,0.1,1.9,1.1,1.9
					C203.8,95.9,204.3,94.9,204.4,94z"/>
				<path class="st0" d="M205.7,94c0.2-1.2,0.8-2.3,2.2-2.3c1.3,0,1.7,1.1,1.5,2.3c-0.2,1.2-0.8,2.3-2.2,2.3
					C205.9,96.3,205.6,95.2,205.7,94z M208.9,94c0.1-0.9-0.1-1.9-1.1-1.9c-1,0-1.5,1-1.6,1.9c-0.1,0.9,0.1,1.9,1.1,1.9
					C208.3,95.9,208.8,94.9,208.9,94z"/>
				<path class="st0" d="M211.1,89.7h0.5l-0.9,6.5h-0.5L211.1,89.7z"/>
				<path class="st0" d="M211.9,95.9l0.2-0.4c0.3,0.2,0.8,0.4,1.3,0.4c0.6,0,1.2-0.2,1.3-0.8c0.1-0.6-0.5-0.8-1.1-0.9
					c-0.7-0.2-1.3-0.5-1.2-1.3c0.1-0.8,0.9-1.2,1.7-1.2c0.5,0,1,0.2,1.2,0.3l-0.2,0.4c-0.2-0.1-0.7-0.3-1.1-0.3
					c-0.7,0-1.1,0.3-1.1,0.7c-0.1,0.6,0.4,0.8,0.9,0.9c0.7,0.2,1.5,0.4,1.4,1.4c-0.1,0.9-1,1.3-1.8,1.3
					C212.7,96.3,212.2,96.1,211.9,95.9z"/>
				<path class="st0" d="M219.6,89.7h0.5l-0.9,6.5h-0.5L219.6,89.7z"/>
				<path class="st0" d="M223.4,96.3l0.4-2.9c0.1-0.6-0.3-1.2-1.1-1.2c-0.8,0-1.2,0.5-1.2,0.5l-0.5,3.7h-0.5l0.5-3.8
					c0,0,0.6-0.8,1.7-0.8c1.1,0,1.6,0.9,1.5,1.7l-0.4,2.9H223.4z"/>
				<path class="st0" d="M226.5,96.3c-0.8,0-1.1-0.5-1-1.2l0.4-2.9h-0.8l0.1-0.5h0.8l0.2-1.2h0.5l-0.2,1.2h1.2l-0.1,0.5h-1.2
					l-0.4,2.9c-0.1,0.5,0.1,0.7,0.6,0.7h0.5l-0.1,0.5H226.5z"/>
				<path class="st0" d="M228,94c0.2-1.2,0.8-2.3,2.2-2.3c1.3,0,1.6,1.1,1.5,2c-0.1,0.4-0.3,0.6-0.7,0.6h-2.5
					c-0.1,0.8,0.2,1.6,1.3,1.6c0.5,0,0.9-0.1,1.2-0.3l0.2,0.4c-0.5,0.3-1.1,0.4-1.5,0.4C228.2,96.3,227.9,95.2,228,94z M228.5,93.8
					h2.5c0.1,0,0.2,0,0.2-0.2c0.1-0.6-0.1-1.6-1.1-1.6C229.1,92.1,228.6,93.2,228.5,93.8z"/>
				<path class="st0" d="M235.1,92.3c-0.2-0.1-0.4-0.2-0.6-0.2c-0.8,0-1.2,0.5-1.2,0.5l-0.5,3.7h-0.5l0.5-3.8c0,0,0.6-0.8,1.7-0.8
					c0.3,0,0.6,0.1,0.8,0.2L235.1,92.3z"/>
				<path class="st0" d="M238.5,96.3l0.4-2.9c0.1-0.6-0.3-1.2-1.1-1.2c-0.8,0-1.2,0.5-1.2,0.5l-0.5,3.7h-0.5l0.5-3.8
					c0,0,0.6-0.8,1.7-0.8c1.1,0,1.6,0.9,1.5,1.7l-0.4,2.9H238.5z"/>
				<path class="st0" d="M243.5,93.9l-0.3,2.4h-0.5l0.1-0.8c-0.2,0.4-0.8,0.9-1.4,0.9c-1.2,0-1.5-0.7-1.4-1.5
					c0.1-0.7,0.7-1.6,1.9-1.6c0.7,0,1.2,0.3,1.2,0.3c0.1-0.9,0-1.5-0.9-1.5c-0.4,0-0.8,0.1-1.3,0.4l-0.2-0.4
					c0.6-0.4,1.1-0.5,1.6-0.5C243.8,91.7,243.7,93,243.5,93.9z M243,94c-0.1-0.1-0.5-0.2-1.2-0.2c-0.9,0-1.3,0.7-1.4,1.1
					c-0.1,0.5,0.1,1,1,1C242.2,95.9,242.9,95.2,243,94z"/>
				<path class="st0" d="M245.8,96.3c-0.8,0-1.1-0.5-1-1.2l0.4-2.9h-0.8l0.1-0.5h0.8l0.2-1.2h0.5l-0.2,1.2h1.2l-0.1,0.5h-1.2
					l-0.4,2.9c-0.1,0.5,0.1,0.7,0.6,0.7h0.5l-0.1,0.5H245.8z"/>
				<path class="st0" d="M248,91.7h0.5l-0.6,4.6h-0.5L248,91.7z M248,90.6c0,0.2,0.1,0.3,0.3,0.3c0.2,0,0.4-0.2,0.4-0.3
					c0-0.2-0.1-0.3-0.3-0.3C248.2,90.3,248.1,90.4,248,90.6z"/>
				<path class="st0" d="M249.2,94c0.2-1.2,0.8-2.3,2.2-2.3c1.3,0,1.7,1.1,1.5,2.3c-0.2,1.2-0.8,2.3-2.2,2.3
					C249.4,96.3,249,95.2,249.2,94z M252.4,94c0.1-0.9-0.1-1.9-1.1-1.9c-1,0-1.5,1-1.6,1.9c-0.1,0.9,0.1,1.9,1.1,1.9
					C251.8,95.9,252.2,94.9,252.4,94z"/>
				<path class="st0" d="M256.3,96.3l0.4-2.9c0.1-0.6-0.3-1.2-1.1-1.2c-0.8,0-1.2,0.5-1.2,0.5l-0.5,3.7h-0.5l0.5-3.8
					c0,0,0.6-0.8,1.7-0.8c1.1,0,1.6,0.9,1.5,1.7l-0.4,2.9H256.3z"/>
				<path class="st0" d="M261.4,93.9l-0.3,2.4h-0.5l0.1-0.8c-0.2,0.4-0.8,0.9-1.4,0.9c-1.2,0-1.5-0.7-1.4-1.5
					c0.1-0.7,0.7-1.6,1.9-1.6c0.7,0,1.2,0.3,1.2,0.3c0.1-0.9,0-1.5-0.9-1.5c-0.4,0-0.8,0.1-1.3,0.4l-0.2-0.4
					c0.6-0.4,1.1-0.5,1.6-0.5C261.7,91.7,261.5,93,261.4,93.9z M260.9,94c-0.1-0.1-0.5-0.2-1.2-0.2c-0.9,0-1.3,0.7-1.4,1.1
					c-0.1,0.5,0.1,1,1,1C260,95.9,260.7,95.2,260.9,94z"/>
				<path class="st0" d="M263.2,89.7h0.5l-0.9,6.5h-0.5L263.2,89.7z"/>
			</g>
		</g>
	</g>
	<g>
		<path class="st2" d="M84.3,48.8l-0.1-48H0.1v0.2H0v47.7c0,0-1.4,22.9,22.1,38.6c0,0,18.8,10.7,19.8,12.3l0.4,0.2
			c1.1-1.6,19.8-12.5,19.8-12.5C85.7,71.7,84.3,48.8,84.3,48.8z"/>
		<g>
			<path class="st3" d="M42.6,22c4.1,0,7.9,1.2,10.7,3l0.7-1.8c-2.8-2.2-6.8-3.5-11.3-3.5c-4.8,0-9.2,1.6-12,4.1l0.7,1.8
				C34,23.5,38.1,22,42.6,22z"/>
			<path class="st3" d="M33,15.3l0.2,1.9l-0.9,1.5L31,18.2l-0.7-1.6L27.2,15l2.7,7.3c0,0,4.4-3.8,12.1-3.8c0,0,7.2-0.4,12.3,3.6
				l2.8-7.6l-2.7,1.3l-1.2,2.2l-1.5,0.7l-0.5-1.2l0.3-2.5l-1.4-3.4L47.7,14L47,15.8l-1.3,0.9l-1.1-1.1l-0.5-2.4l-2.1-2.8l-1.8,3.1
				l-0.3,2.1l-1.3,1.1l-1.4-1.1l-0.5-1.6L34,11.7L33,15.3z"/>
		</g>
		<g>
			<path class="st4" d="M71.1,34.7v1c-1.1,0-2,0.2-2.6,0.5c-0.7,0.3-1.3,1-1.9,2c-0.4,0.6-1,2.2-1.9,4.7L53.1,73.2h-1.3l-9.5-24.1
				L33,73.2h-1.2L19.5,41.9c-0.9-2.3-1.5-3.7-1.7-4.1c-0.4-0.7-1-1.2-1.7-1.6c-0.7-0.3-1.7-0.5-2.9-0.5v-1h15.3v1h-0.7
				c-1.1,0-1.9,0.2-2.5,0.7c-0.6,0.4-0.9,1-0.9,1.6c0,0.7,0.5,2.2,1.4,4.5L34,63.6l6.9-18l-1.2-3.1l-1-2.5c-0.4-0.9-0.9-1.8-1.4-2.5
				c-0.3-0.3-0.6-0.6-1-0.9c-0.5-0.3-1-0.6-1.5-0.7c-0.4-0.1-1-0.2-1.8-0.2v-1h16.2v1H48c-1.1,0-2,0.2-2.5,0.7
				c-0.5,0.4-0.8,1-0.8,1.8c0,0.9,0.5,2.6,1.4,4.9l8,20.5l7.9-20.8c0.9-2.3,1.3-3.9,1.3-4.8c0-0.4-0.1-0.8-0.4-1.2
				c-0.3-0.4-0.7-0.6-1.1-0.8c-0.8-0.2-1.8-0.4-3-0.4v-1H71.1z"/>
		</g>
	</g>
</g>
</svg>
